<mxfile host="www.draw.io" modified="2019-11-26T07:01:00.314Z" agent="Mozilla/5.0 (Windows NT 6.3; Win64; x64; rv:70.0) Gecko/20100101 Firefox/70.0" etag="BJgVUprwugW1R5pqpYPv" version="12.3.0" type="github" pages="1">
  <diagram name="Page-1" id="6133507b-19e7-1e82-6fc7-422aa6c4b21f">
    <mxGraphModel dx="2062" dy="1129" grid="1" gridSize="10" guides="1" tooltips="1" connect="1" arrows="1" fold="1" page="1" pageScale="1" pageWidth="1100" pageHeight="850" background="#ffffff" math="0" shadow="0">
      <root>
        <mxCell id="0"/>
        <mxCell id="1" parent="0"/>
        <mxCell id="78961159f06e98e8-17" value="Classname" style="swimlane;html=1;fontStyle=1;align=center;verticalAlign=top;childLayout=stackLayout;horizontal=1;startSize=26;horizontalStack=0;resizeParent=1;resizeLast=0;collapsible=1;marginBottom=0;swimlaneFillColor=#ffffff;rounded=0;shadow=0;comic=0;labelBackgroundColor=none;strokeWidth=1;fillColor=none;fontFamily=Verdana;fontSize=12" parent="1" vertex="1">
          <mxGeometry x="910" y="680" width="160" height="118" as="geometry"/>
        </mxCell>
        <mxCell id="78961159f06e98e8-23" value="+ field: type" style="text;html=1;strokeColor=none;fillColor=none;align=left;verticalAlign=top;spacingLeft=4;spacingRight=4;whiteSpace=wrap;overflow=hidden;rotatable=0;points=[[0,0.5],[1,0.5]];portConstraint=eastwest;" parent="78961159f06e98e8-17" vertex="1">
          <mxGeometry y="26" width="160" height="26" as="geometry"/>
        </mxCell>
        <mxCell id="78961159f06e98e8-24" value="+ field: type" style="text;html=1;strokeColor=none;fillColor=none;align=left;verticalAlign=top;spacingLeft=4;spacingRight=4;whiteSpace=wrap;overflow=hidden;rotatable=0;points=[[0,0.5],[1,0.5]];portConstraint=eastwest;" parent="78961159f06e98e8-17" vertex="1">
          <mxGeometry y="52" width="160" height="26" as="geometry"/>
        </mxCell>
        <mxCell id="78961159f06e98e8-19" value="" style="line;html=1;strokeWidth=1;fillColor=none;align=left;verticalAlign=middle;spacingTop=-1;spacingLeft=3;spacingRight=3;rotatable=0;labelPosition=right;points=[];portConstraint=eastwest;" parent="78961159f06e98e8-17" vertex="1">
          <mxGeometry y="78" width="160" height="8" as="geometry"/>
        </mxCell>
        <mxCell id="78961159f06e98e8-27" value="+ method(type): type" style="text;html=1;strokeColor=none;fillColor=none;align=left;verticalAlign=top;spacingLeft=4;spacingRight=4;whiteSpace=wrap;overflow=hidden;rotatable=0;points=[[0,0.5],[1,0.5]];portConstraint=eastwest;" parent="78961159f06e98e8-17" vertex="1">
          <mxGeometry y="86" width="160" height="26" as="geometry"/>
        </mxCell>
        <mxCell id="tQbu4OHNhD7reHEDY6yL-50" value="ImportConfig" style="swimlane;html=1;fontStyle=1;align=center;verticalAlign=top;childLayout=stackLayout;horizontal=1;startSize=26;horizontalStack=0;resizeParent=1;resizeLast=0;collapsible=1;marginBottom=0;swimlaneFillColor=#ffffff;rounded=0;shadow=0;comic=0;labelBackgroundColor=none;strokeWidth=1;fillColor=none;fontFamily=Verdana;fontSize=12" vertex="1" parent="1">
          <mxGeometry x="910" y="60" width="160" height="138" as="geometry"/>
        </mxCell>
        <mxCell id="tQbu4OHNhD7reHEDY6yL-51" value="&lt;div&gt;+ #datasets&lt;/div&gt;" style="text;html=1;strokeColor=none;fillColor=none;align=left;verticalAlign=top;spacingLeft=4;spacingRight=4;whiteSpace=wrap;overflow=hidden;rotatable=0;points=[[0,0.5],[1,0.5]];portConstraint=eastwest;" vertex="1" parent="tQbu4OHNhD7reHEDY6yL-50">
          <mxGeometry y="26" width="160" height="26" as="geometry"/>
        </mxCell>
        <mxCell id="tQbu4OHNhD7reHEDY6yL-52" value="+ fields[]" style="text;html=1;strokeColor=none;fillColor=none;align=left;verticalAlign=top;spacingLeft=4;spacingRight=4;whiteSpace=wrap;overflow=hidden;rotatable=0;points=[[0,0.5],[1,0.5]];portConstraint=eastwest;" vertex="1" parent="tQbu4OHNhD7reHEDY6yL-50">
          <mxGeometry y="52" width="160" height="26" as="geometry"/>
        </mxCell>
        <mxCell id="tQbu4OHNhD7reHEDY6yL-55" value="+ target" style="text;html=1;strokeColor=none;fillColor=none;align=left;verticalAlign=top;spacingLeft=4;spacingRight=4;whiteSpace=wrap;overflow=hidden;rotatable=0;points=[[0,0.5],[1,0.5]];portConstraint=eastwest;" vertex="1" parent="tQbu4OHNhD7reHEDY6yL-50">
          <mxGeometry y="78" width="160" height="26" as="geometry"/>
        </mxCell>
        <mxCell id="tQbu4OHNhD7reHEDY6yL-53" value="" style="line;html=1;strokeWidth=1;fillColor=none;align=left;verticalAlign=middle;spacingTop=-1;spacingLeft=3;spacingRight=3;rotatable=0;labelPosition=right;points=[];portConstraint=eastwest;" vertex="1" parent="tQbu4OHNhD7reHEDY6yL-50">
          <mxGeometry y="104" width="160" height="8" as="geometry"/>
        </mxCell>
        <mxCell id="tQbu4OHNhD7reHEDY6yL-54" value="+ method(type): type" style="text;html=1;strokeColor=none;fillColor=none;align=left;verticalAlign=top;spacingLeft=4;spacingRight=4;whiteSpace=wrap;overflow=hidden;rotatable=0;points=[[0,0.5],[1,0.5]];portConstraint=eastwest;" vertex="1" parent="tQbu4OHNhD7reHEDY6yL-50">
          <mxGeometry y="112" width="160" height="26" as="geometry"/>
        </mxCell>
        <mxCell id="tQbu4OHNhD7reHEDY6yL-56" value="" style="group" vertex="1" connectable="0" parent="1">
          <mxGeometry x="50" y="60" width="380" height="260" as="geometry"/>
        </mxCell>
        <mxCell id="tQbu4OHNhD7reHEDY6yL-2" value="&lt;div&gt;DataSource&lt;/div&gt;" style="swimlane;html=1;fontStyle=1;align=center;verticalAlign=top;childLayout=stackLayout;horizontal=1;startSize=26;horizontalStack=0;resizeParent=1;resizeLast=0;collapsible=1;marginBottom=0;swimlaneFillColor=#ffffff;rounded=0;shadow=0;comic=0;labelBackgroundColor=none;strokeWidth=1;fillColor=none;fontFamily=Verdana;fontSize=12" vertex="1" parent="tQbu4OHNhD7reHEDY6yL-56">
          <mxGeometry x="70" width="160" height="138" as="geometry"/>
        </mxCell>
        <mxCell id="tQbu4OHNhD7reHEDY6yL-3" value="+ ID" style="text;html=1;strokeColor=none;fillColor=none;align=left;verticalAlign=top;spacingLeft=4;spacingRight=4;whiteSpace=wrap;overflow=hidden;rotatable=0;points=[[0,0.5],[1,0.5]];portConstraint=eastwest;" vertex="1" parent="tQbu4OHNhD7reHEDY6yL-2">
          <mxGeometry y="26" width="160" height="26" as="geometry"/>
        </mxCell>
        <mxCell id="tQbu4OHNhD7reHEDY6yL-4" value="+ domain" style="text;html=1;strokeColor=none;fillColor=none;align=left;verticalAlign=top;spacingLeft=4;spacingRight=4;whiteSpace=wrap;overflow=hidden;rotatable=0;points=[[0,0.5],[1,0.5]];portConstraint=eastwest;" vertex="1" parent="tQbu4OHNhD7reHEDY6yL-2">
          <mxGeometry y="52" width="160" height="26" as="geometry"/>
        </mxCell>
        <mxCell id="tQbu4OHNhD7reHEDY6yL-7" value="+ type" style="text;html=1;strokeColor=none;fillColor=none;align=left;verticalAlign=top;spacingLeft=4;spacingRight=4;whiteSpace=wrap;overflow=hidden;rotatable=0;points=[[0,0.5],[1,0.5]];portConstraint=eastwest;" vertex="1" parent="tQbu4OHNhD7reHEDY6yL-2">
          <mxGeometry y="78" width="160" height="26" as="geometry"/>
        </mxCell>
        <mxCell id="tQbu4OHNhD7reHEDY6yL-5" value="" style="line;html=1;strokeWidth=1;fillColor=none;align=left;verticalAlign=middle;spacingTop=-1;spacingLeft=3;spacingRight=3;rotatable=0;labelPosition=right;points=[];portConstraint=eastwest;" vertex="1" parent="tQbu4OHNhD7reHEDY6yL-2">
          <mxGeometry y="104" width="160" height="8" as="geometry"/>
        </mxCell>
        <mxCell id="tQbu4OHNhD7reHEDY6yL-6" value="+ method(type): type" style="text;html=1;strokeColor=none;fillColor=none;align=left;verticalAlign=top;spacingLeft=4;spacingRight=4;whiteSpace=wrap;overflow=hidden;rotatable=0;points=[[0,0.5],[1,0.5]];portConstraint=eastwest;" vertex="1" parent="tQbu4OHNhD7reHEDY6yL-2">
          <mxGeometry y="112" width="160" height="26" as="geometry"/>
        </mxCell>
        <mxCell id="tQbu4OHNhD7reHEDY6yL-16" style="edgeStyle=orthogonalEdgeStyle;rounded=0;orthogonalLoop=1;jettySize=auto;html=1;entryX=0.213;entryY=1.038;entryDx=0;entryDy=0;entryPerimeter=0;" edge="1" parent="tQbu4OHNhD7reHEDY6yL-56" source="tQbu4OHNhD7reHEDY6yL-10" target="tQbu4OHNhD7reHEDY6yL-6">
          <mxGeometry relative="1" as="geometry"/>
        </mxCell>
        <mxCell id="tQbu4OHNhD7reHEDY6yL-10" value="Ori" style="html=1;" vertex="1" parent="tQbu4OHNhD7reHEDY6yL-56">
          <mxGeometry y="180" width="75" height="40" as="geometry"/>
        </mxCell>
        <mxCell id="tQbu4OHNhD7reHEDY6yL-15" style="edgeStyle=orthogonalEdgeStyle;rounded=0;orthogonalLoop=1;jettySize=auto;html=1;" edge="1" parent="tQbu4OHNhD7reHEDY6yL-56" source="tQbu4OHNhD7reHEDY6yL-14" target="tQbu4OHNhD7reHEDY6yL-2">
          <mxGeometry relative="1" as="geometry"/>
        </mxCell>
        <mxCell id="tQbu4OHNhD7reHEDY6yL-14" value="URI" style="html=1;" vertex="1" parent="tQbu4OHNhD7reHEDY6yL-56">
          <mxGeometry x="112.5" y="180" width="75" height="40" as="geometry"/>
        </mxCell>
        <mxCell id="tQbu4OHNhD7reHEDY6yL-24" style="edgeStyle=orthogonalEdgeStyle;rounded=0;orthogonalLoop=1;jettySize=auto;html=1;entryX=0.788;entryY=1;entryDx=0;entryDy=0;entryPerimeter=0;" edge="1" parent="tQbu4OHNhD7reHEDY6yL-56" source="tQbu4OHNhD7reHEDY6yL-19" target="tQbu4OHNhD7reHEDY6yL-6">
          <mxGeometry relative="1" as="geometry"/>
        </mxCell>
        <mxCell id="tQbu4OHNhD7reHEDY6yL-19" value="Origin" style="swimlane;html=1;fontStyle=1;align=center;verticalAlign=top;childLayout=stackLayout;horizontal=1;startSize=26;horizontalStack=0;resizeParent=1;resizeLast=0;collapsible=1;marginBottom=0;swimlaneFillColor=#ffffff;rounded=0;shadow=0;comic=0;labelBackgroundColor=none;strokeWidth=1;fillColor=none;fontFamily=Verdana;fontSize=12" vertex="1" parent="tQbu4OHNhD7reHEDY6yL-56">
          <mxGeometry x="220" y="180" width="160" height="80" as="geometry"/>
        </mxCell>
        <mxCell id="tQbu4OHNhD7reHEDY6yL-20" value="+ author" style="text;html=1;strokeColor=none;fillColor=none;align=left;verticalAlign=top;spacingLeft=4;spacingRight=4;whiteSpace=wrap;overflow=hidden;rotatable=0;points=[[0,0.5],[1,0.5]];portConstraint=eastwest;" vertex="1" parent="tQbu4OHNhD7reHEDY6yL-19">
          <mxGeometry y="26" width="160" height="26" as="geometry"/>
        </mxCell>
        <mxCell id="tQbu4OHNhD7reHEDY6yL-21" value="+ timestamp" style="text;html=1;strokeColor=none;fillColor=none;align=left;verticalAlign=top;spacingLeft=4;spacingRight=4;whiteSpace=wrap;overflow=hidden;rotatable=0;points=[[0,0.5],[1,0.5]];portConstraint=eastwest;" vertex="1" parent="tQbu4OHNhD7reHEDY6yL-19">
          <mxGeometry y="52" width="160" height="26" as="geometry"/>
        </mxCell>
        <mxCell id="tQbu4OHNhD7reHEDY6yL-57" value="" style="group" vertex="1" connectable="0" parent="1">
          <mxGeometry x="480" y="60" width="380" height="359" as="geometry"/>
        </mxCell>
        <mxCell id="tQbu4OHNhD7reHEDY6yL-25" value="ImportMapping" style="swimlane;html=1;fontStyle=1;align=center;verticalAlign=top;childLayout=stackLayout;horizontal=1;startSize=26;horizontalStack=0;resizeParent=1;resizeLast=0;collapsible=1;marginBottom=0;swimlaneFillColor=#ffffff;rounded=0;shadow=0;comic=0;labelBackgroundColor=none;strokeWidth=1;fillColor=none;fontFamily=Verdana;fontSize=12" vertex="1" parent="tQbu4OHNhD7reHEDY6yL-57">
          <mxGeometry width="160" height="164" as="geometry"/>
        </mxCell>
        <mxCell id="tQbu4OHNhD7reHEDY6yL-26" value="+ ID" style="text;html=1;strokeColor=none;fillColor=none;align=left;verticalAlign=top;spacingLeft=4;spacingRight=4;whiteSpace=wrap;overflow=hidden;rotatable=0;points=[[0,0.5],[1,0.5]];portConstraint=eastwest;" vertex="1" parent="tQbu4OHNhD7reHEDY6yL-25">
          <mxGeometry y="26" width="160" height="26" as="geometry"/>
        </mxCell>
        <mxCell id="tQbu4OHNhD7reHEDY6yL-27" value="+ name" style="text;html=1;strokeColor=none;fillColor=none;align=left;verticalAlign=top;spacingLeft=4;spacingRight=4;whiteSpace=wrap;overflow=hidden;rotatable=0;points=[[0,0.5],[1,0.5]];portConstraint=eastwest;" vertex="1" parent="tQbu4OHNhD7reHEDY6yL-25">
          <mxGeometry y="52" width="160" height="26" as="geometry"/>
        </mxCell>
        <mxCell id="tQbu4OHNhD7reHEDY6yL-30" value="+ domain" style="text;html=1;strokeColor=none;fillColor=none;align=left;verticalAlign=top;spacingLeft=4;spacingRight=4;whiteSpace=wrap;overflow=hidden;rotatable=0;points=[[0,0.5],[1,0.5]];portConstraint=eastwest;" vertex="1" parent="tQbu4OHNhD7reHEDY6yL-25">
          <mxGeometry y="78" width="160" height="26" as="geometry"/>
        </mxCell>
        <mxCell id="tQbu4OHNhD7reHEDY6yL-31" value="+ type" style="text;html=1;strokeColor=none;fillColor=none;align=left;verticalAlign=top;spacingLeft=4;spacingRight=4;whiteSpace=wrap;overflow=hidden;rotatable=0;points=[[0,0.5],[1,0.5]];portConstraint=eastwest;" vertex="1" parent="tQbu4OHNhD7reHEDY6yL-25">
          <mxGeometry y="104" width="160" height="26" as="geometry"/>
        </mxCell>
        <mxCell id="tQbu4OHNhD7reHEDY6yL-28" value="" style="line;html=1;strokeWidth=1;fillColor=none;align=left;verticalAlign=middle;spacingTop=-1;spacingLeft=3;spacingRight=3;rotatable=0;labelPosition=right;points=[];portConstraint=eastwest;" vertex="1" parent="tQbu4OHNhD7reHEDY6yL-25">
          <mxGeometry y="130" width="160" height="8" as="geometry"/>
        </mxCell>
        <mxCell id="tQbu4OHNhD7reHEDY6yL-29" value="+ method(type): type" style="text;html=1;strokeColor=none;fillColor=none;align=left;verticalAlign=top;spacingLeft=4;spacingRight=4;whiteSpace=wrap;overflow=hidden;rotatable=0;points=[[0,0.5],[1,0.5]];portConstraint=eastwest;" vertex="1" parent="tQbu4OHNhD7reHEDY6yL-25">
          <mxGeometry y="138" width="160" height="26" as="geometry"/>
        </mxCell>
        <mxCell id="tQbu4OHNhD7reHEDY6yL-48" style="edgeStyle=orthogonalEdgeStyle;rounded=0;orthogonalLoop=1;jettySize=auto;html=1;endArrow=none;endFill=0;" edge="1" parent="tQbu4OHNhD7reHEDY6yL-57" source="tQbu4OHNhD7reHEDY6yL-32" target="tQbu4OHNhD7reHEDY6yL-25">
          <mxGeometry relative="1" as="geometry"/>
        </mxCell>
        <mxCell id="tQbu4OHNhD7reHEDY6yL-32" value="FieldMapping" style="swimlane;html=1;fontStyle=1;align=center;verticalAlign=top;childLayout=stackLayout;horizontal=1;startSize=26;horizontalStack=0;resizeParent=1;resizeLast=0;collapsible=1;marginBottom=0;swimlaneFillColor=#ffffff;rounded=0;shadow=0;comic=0;labelBackgroundColor=none;strokeWidth=1;fillColor=none;fontFamily=Verdana;fontSize=12" vertex="1" parent="tQbu4OHNhD7reHEDY6yL-57">
          <mxGeometry y="221" width="160" height="138" as="geometry"/>
        </mxCell>
        <mxCell id="tQbu4OHNhD7reHEDY6yL-33" value="+ in: FieldConfig" style="text;html=1;strokeColor=none;fillColor=none;align=left;verticalAlign=top;spacingLeft=4;spacingRight=4;whiteSpace=wrap;overflow=hidden;rotatable=0;points=[[0,0.5],[1,0.5]];portConstraint=eastwest;" vertex="1" parent="tQbu4OHNhD7reHEDY6yL-32">
          <mxGeometry y="26" width="160" height="26" as="geometry"/>
        </mxCell>
        <mxCell id="tQbu4OHNhD7reHEDY6yL-34" value="+ out: FieldConfig" style="text;html=1;strokeColor=none;fillColor=none;align=left;verticalAlign=top;spacingLeft=4;spacingRight=4;whiteSpace=wrap;overflow=hidden;rotatable=0;points=[[0,0.5],[1,0.5]];portConstraint=eastwest;" vertex="1" parent="tQbu4OHNhD7reHEDY6yL-32">
          <mxGeometry y="52" width="160" height="26" as="geometry"/>
        </mxCell>
        <mxCell id="tQbu4OHNhD7reHEDY6yL-37" value="+ required: bool" style="text;html=1;strokeColor=none;fillColor=none;align=left;verticalAlign=top;spacingLeft=4;spacingRight=4;whiteSpace=wrap;overflow=hidden;rotatable=0;points=[[0,0.5],[1,0.5]];portConstraint=eastwest;" vertex="1" parent="tQbu4OHNhD7reHEDY6yL-32">
          <mxGeometry y="78" width="160" height="26" as="geometry"/>
        </mxCell>
        <mxCell id="tQbu4OHNhD7reHEDY6yL-35" value="" style="line;html=1;strokeWidth=1;fillColor=none;align=left;verticalAlign=middle;spacingTop=-1;spacingLeft=3;spacingRight=3;rotatable=0;labelPosition=right;points=[];portConstraint=eastwest;" vertex="1" parent="tQbu4OHNhD7reHEDY6yL-32">
          <mxGeometry y="104" width="160" height="8" as="geometry"/>
        </mxCell>
        <mxCell id="tQbu4OHNhD7reHEDY6yL-36" value="+ method(type): type" style="text;html=1;strokeColor=none;fillColor=none;align=left;verticalAlign=top;spacingLeft=4;spacingRight=4;whiteSpace=wrap;overflow=hidden;rotatable=0;points=[[0,0.5],[1,0.5]];portConstraint=eastwest;" vertex="1" parent="tQbu4OHNhD7reHEDY6yL-32">
          <mxGeometry y="112" width="160" height="26" as="geometry"/>
        </mxCell>
        <mxCell id="tQbu4OHNhD7reHEDY6yL-38" value="FieldConfig" style="swimlane;html=1;fontStyle=1;align=center;verticalAlign=top;childLayout=stackLayout;horizontal=1;startSize=26;horizontalStack=0;resizeParent=1;resizeLast=0;collapsible=1;marginBottom=0;swimlaneFillColor=#ffffff;rounded=0;shadow=0;comic=0;labelBackgroundColor=none;strokeWidth=1;fillColor=none;fontFamily=Verdana;fontSize=12" vertex="1" parent="tQbu4OHNhD7reHEDY6yL-57">
          <mxGeometry x="220" y="250" width="160" height="80" as="geometry"/>
        </mxCell>
        <mxCell id="tQbu4OHNhD7reHEDY6yL-39" value="+ fieldName" style="text;html=1;strokeColor=none;fillColor=none;align=left;verticalAlign=top;spacingLeft=4;spacingRight=4;whiteSpace=wrap;overflow=hidden;rotatable=0;points=[[0,0.5],[1,0.5]];portConstraint=eastwest;" vertex="1" parent="tQbu4OHNhD7reHEDY6yL-38">
          <mxGeometry y="26" width="160" height="26" as="geometry"/>
        </mxCell>
        <mxCell id="tQbu4OHNhD7reHEDY6yL-40" value="+ fieldDatatype" style="text;html=1;strokeColor=none;fillColor=none;align=left;verticalAlign=top;spacingLeft=4;spacingRight=4;whiteSpace=wrap;overflow=hidden;rotatable=0;points=[[0,0.5],[1,0.5]];portConstraint=eastwest;" vertex="1" parent="tQbu4OHNhD7reHEDY6yL-38">
          <mxGeometry y="52" width="160" height="26" as="geometry"/>
        </mxCell>
        <mxCell id="tQbu4OHNhD7reHEDY6yL-47" style="edgeStyle=orthogonalEdgeStyle;rounded=0;orthogonalLoop=1;jettySize=auto;html=1;endArrow=none;endFill=0;" edge="1" parent="tQbu4OHNhD7reHEDY6yL-57" source="tQbu4OHNhD7reHEDY6yL-32" target="tQbu4OHNhD7reHEDY6yL-38">
          <mxGeometry relative="1" as="geometry"/>
        </mxCell>
        <mxCell id="tQbu4OHNhD7reHEDY6yL-49" value="1..*" style="text;html=1;align=center;verticalAlign=middle;resizable=0;points=[];;autosize=1;" vertex="1" parent="tQbu4OHNhD7reHEDY6yL-57">
          <mxGeometry x="80" y="201" width="30" height="20" as="geometry"/>
        </mxCell>
        <mxCell id="tQbu4OHNhD7reHEDY6yL-58" value="ImportService" style="swimlane;html=1;fontStyle=1;align=center;verticalAlign=top;childLayout=stackLayout;horizontal=1;startSize=26;horizontalStack=0;resizeParent=1;resizeLast=0;collapsible=1;marginBottom=0;swimlaneFillColor=#ffffff;rounded=0;shadow=0;comic=0;labelBackgroundColor=none;strokeWidth=1;fillColor=none;fontFamily=Verdana;fontSize=12" vertex="1" parent="1">
          <mxGeometry x="410" y="530" width="320" height="164" as="geometry"/>
        </mxCell>
        <mxCell id="tQbu4OHNhD7reHEDY6yL-59" value="+ field: type" style="text;html=1;strokeColor=none;fillColor=none;align=left;verticalAlign=top;spacingLeft=4;spacingRight=4;whiteSpace=wrap;overflow=hidden;rotatable=0;points=[[0,0.5],[1,0.5]];portConstraint=eastwest;" vertex="1" parent="tQbu4OHNhD7reHEDY6yL-58">
          <mxGeometry y="26" width="320" height="26" as="geometry"/>
        </mxCell>
        <mxCell id="tQbu4OHNhD7reHEDY6yL-61" value="" style="line;html=1;strokeWidth=1;fillColor=none;align=left;verticalAlign=middle;spacingTop=-1;spacingLeft=3;spacingRight=3;rotatable=0;labelPosition=right;points=[];portConstraint=eastwest;" vertex="1" parent="tQbu4OHNhD7reHEDY6yL-58">
          <mxGeometry y="52" width="320" height="8" as="geometry"/>
        </mxCell>
        <mxCell id="tQbu4OHNhD7reHEDY6yL-62" value="+ validate(DataSource, ImportMapping)" style="text;html=1;strokeColor=none;fillColor=none;align=left;verticalAlign=top;spacingLeft=4;spacingRight=4;whiteSpace=wrap;overflow=hidden;rotatable=0;points=[[0,0.5],[1,0.5]];portConstraint=eastwest;" vertex="1" parent="tQbu4OHNhD7reHEDY6yL-58">
          <mxGeometry y="60" width="320" height="26" as="geometry"/>
        </mxCell>
        <mxCell id="tQbu4OHNhD7reHEDY6yL-63" value="+ preview(DataSource, ImportMapping)" style="text;html=1;strokeColor=none;fillColor=none;align=left;verticalAlign=top;spacingLeft=4;spacingRight=4;whiteSpace=wrap;overflow=hidden;rotatable=0;points=[[0,0.5],[1,0.5]];portConstraint=eastwest;" vertex="1" parent="tQbu4OHNhD7reHEDY6yL-58">
          <mxGeometry y="86" width="320" height="26" as="geometry"/>
        </mxCell>
        <mxCell id="tQbu4OHNhD7reHEDY6yL-64" value="+ testImport(DataSource, ImportMapping, ImportConfig)" style="text;html=1;strokeColor=none;fillColor=none;align=left;verticalAlign=top;spacingLeft=4;spacingRight=4;whiteSpace=wrap;overflow=hidden;rotatable=0;points=[[0,0.5],[1,0.5]];portConstraint=eastwest;" vertex="1" parent="tQbu4OHNhD7reHEDY6yL-58">
          <mxGeometry y="112" width="320" height="26" as="geometry"/>
        </mxCell>
        <mxCell id="tQbu4OHNhD7reHEDY6yL-65" value="+ import(DataSource, ImportMapping, ImportConfig)" style="text;html=1;strokeColor=none;fillColor=none;align=left;verticalAlign=top;spacingLeft=4;spacingRight=4;whiteSpace=wrap;overflow=hidden;rotatable=0;points=[[0,0.5],[1,0.5]];portConstraint=eastwest;" vertex="1" parent="tQbu4OHNhD7reHEDY6yL-58">
          <mxGeometry y="138" width="320" height="26" as="geometry"/>
        </mxCell>
      </root>
    </mxGraphModel>
  </diagram>
</mxfile>
